<mxfile host="app.diagrams.net" modified="2022-10-14T15:47:31.450Z" agent="5.0 (X11; Linux x86_64) AppleWebKit/537.36 (KHTML, like Gecko) Chrome/103.0.0.0 Safari/537.36" etag="Bc2N8WzyZ8cwhuJzYGDz" version="20.4.1" type="github">
  <diagram id="2i4bGPnVI529aCsl2PKk" name="Page-1">
    <mxGraphModel dx="1129" dy="1762" grid="1" gridSize="10" guides="1" tooltips="1" connect="1" arrows="1" fold="1" page="1" pageScale="1" pageWidth="827" pageHeight="1169" math="0" shadow="0">
      <root>
        <mxCell id="0" />
        <mxCell id="1" parent="0" />
        <mxCell id="KoIMYKCsZ12uGpvqyG89-5" value="Prodi" style="rounded=0;whiteSpace=wrap;html=1;fontSize=8;fillColor=#d5e8d4;strokeColor=#82b366;gradientColor=#97d077;" vertex="1" parent="1">
          <mxGeometry x="310" y="110" width="280" height="350" as="geometry" />
        </mxCell>
        <mxCell id="KoIMYKCsZ12uGpvqyG89-11" style="edgeStyle=orthogonalEdgeStyle;rounded=0;orthogonalLoop=1;jettySize=auto;html=1;exitX=1;exitY=0.5;exitDx=0;exitDy=0;entryX=0;entryY=0.5;entryDx=0;entryDy=0;fontSize=8;" edge="1" parent="1" source="pE5c4ry1s6cFORCVuCyy-18" target="pE5c4ry1s6cFORCVuCyy-36">
          <mxGeometry relative="1" as="geometry" />
        </mxCell>
        <mxCell id="pE5c4ry1s6cFORCVuCyy-18" value="&lt;div style=&quot;&quot;&gt;&lt;span style=&quot;background-color: initial;&quot;&gt;Productivos&lt;/span&gt;&lt;br&gt;&lt;/div&gt;" style="rounded=0;whiteSpace=wrap;html=1;fontSize=6;align=left;" parent="1" vertex="1">
          <mxGeometry x="370" y="270" width="180" height="161.59" as="geometry" />
        </mxCell>
        <mxCell id="KoIMYKCsZ12uGpvqyG89-13" style="edgeStyle=orthogonalEdgeStyle;rounded=0;orthogonalLoop=1;jettySize=auto;html=1;exitX=1;exitY=0.5;exitDx=0;exitDy=0;entryX=0;entryY=0.5;entryDx=0;entryDy=0;fontSize=8;" edge="1" parent="1" source="pE5c4ry1s6cFORCVuCyy-39" target="pE5c4ry1s6cFORCVuCyy-36">
          <mxGeometry relative="1" as="geometry">
            <Array as="points">
              <mxPoint x="640" y="184" />
              <mxPoint x="640" y="460" />
            </Array>
          </mxGeometry>
        </mxCell>
        <mxCell id="pE5c4ry1s6cFORCVuCyy-39" value="GitLab Runner&amp;nbsp;&lt;br&gt;(Queretaro)" style="rounded=0;whiteSpace=wrap;html=1;labelBackgroundColor=none;fontSize=13;" parent="1" vertex="1">
          <mxGeometry x="381" y="129" width="156" height="111" as="geometry" />
        </mxCell>
        <mxCell id="pE5c4ry1s6cFORCVuCyy-19" value="&lt;div style=&quot;&quot;&gt;&lt;span style=&quot;background-color: initial;&quot;&gt;AVL&lt;/span&gt;&lt;br&gt;&lt;/div&gt;" style="rounded=0;whiteSpace=wrap;html=1;fontSize=6;align=left;" parent="1" vertex="1">
          <mxGeometry x="170" y="-100" width="371.86" height="190" as="geometry" />
        </mxCell>
        <mxCell id="pE5c4ry1s6cFORCVuCyy-30" value="GitLab Runner&lt;br&gt;(Queretaro)" style="rounded=0;whiteSpace=wrap;html=1;fontSize=13;fillColor=#ffe6cc;strokeColor=#d79b00;" parent="1" vertex="1">
          <mxGeometry x="360.01" y="-33.22" width="147.99" height="103.22" as="geometry" />
        </mxCell>
        <mxCell id="pE5c4ry1s6cFORCVuCyy-4" value="SonarQube (v 9) (Queretaro)" style="whiteSpace=wrap;html=1;aspect=fixed;fillColor=#f8cecc;strokeColor=#b85450;" parent="1" vertex="1">
          <mxGeometry x="680" y="99" width="120" height="120" as="geometry" />
        </mxCell>
        <mxCell id="EPyueugh2iobcvaEf9Se-22" value="Despliegue (SENHA)" style="whiteSpace=wrap;html=1;aspect=fixed;align=center;verticalAlign=top;fillColor=#d5e8d4;strokeColor=#82b366;" parent="1" vertex="1">
          <mxGeometry x="357.87999999999994" y="-270" width="166.25" height="166.25" as="geometry" />
        </mxCell>
        <mxCell id="EPyueugh2iobcvaEf9Se-1" value="GitLab&amp;nbsp;&lt;br&gt;Server" style="whiteSpace=wrap;html=1;aspect=fixed;fillColor=#f5f5f5;fontColor=#333333;strokeColor=#666666;" parent="1" vertex="1">
          <mxGeometry x="188.5" y="170" width="80" height="80" as="geometry" />
        </mxCell>
        <mxCell id="EPyueugh2iobcvaEf9Se-3" value="" style="shape=image;verticalLabelPosition=bottom;labelBackgroundColor=default;verticalAlign=top;aspect=fixed;imageAspect=0;image=data:image/png,iVBORw0KGgoAAAANSUhEUgAAAOEAAADhCAMAAAAJbSJIAAAA9lBMVEX////iQyn8bSb8oybhNBH0wLn8bCb8pSb8aibhQCniQCXhPB/kRin8ayLiPyP8aRzpTyj8ZhP8YgD8ngDhORrzXyf8oCb87ev76OXhNBDgLwD4ZifwWif9tZ3/8Or+08L8h1P99fTxrqb30879qYf7eib7hybulovnbVzvn5TzurPmYk/wp57kUz32y8bkTzbsjIDpeWr419P+x7H9v6f+2Mj8dTL7lyb/8+X8rULpdmb64d7lXkrqgnXriHv5nHz9lmr8fUD/49f9jl79rYz8iFX8dR38sln9yIn9z5n+4L7/9+3+3bb9wnj9v3L+3bf8qDP+69TguyEEAAAIqUlEQVR4nO2di1qbTBCGA4lRopGcrCamRqqtrbW19tza/vZsD/bg/d/MDyRLgN2FZWcGEp99L6DDB+/ODht8WqsZDAaDwWAwGAwGg8FgMBgMBoPBYDAYDAYDGG/leGW7hDo7fh2vhDocR6NhozE6o864fTZqNIajI+IyAu4PrYDBKe3t3T4dhHUa90nLCHgwDehHfEta5+1gVmf4gLQOhzeyGMOnhHXOG1GdEWEZAcfzygPKm3syiOo0jgnr8DzcjCpvPrwBdTjOh9acxg5dnUa8zjlZHZ6jQazy4ISszkmiTok7hveoFatMqE9MUstqPSpv338cl9TvclSa7owSdYaPierwvF9PVCbTNCGpZa2fEdXh2G4kClutU6JCicUQ3MoyxuCAO6mEVJpuj1J1GndI6vCcpm6tNaCpfGeQqtN6RFKH42n61lJ100QnncpCOSHOebKeLmxtUmi6w9dZ/4+gDodnpSUlWiDccvc1tcrYElf4wtYmxSvUW07Sksbv+4LCFH18O91nwltZwovwjuARktzbY3EhujGf8UB0ayk0FbpC+zY6hdsMp4ywW4DH7UkhZPNTxGNxYXxNxZL6t5J6/D7jN6mpptgtQCwp/fgtccdC76aecLmHD5F2SxTswkzTFdRCol13Voh2/H4ncQfdHtlq8NfDO9RCKZ5K3fEHKkxNtwWjIWNAOX4fyRPinjGkzkmSCZ8gFkohGroj1t8jVnovlZR2/F7JuLNWaxOvcOattIa4TS2OaNqPFcbTNEtSyvGbOzdJgqhplqQ+I6oTqZOMPhM+RLRK2beSbvyWDN3zhFiaZktKN34fSMeMGWia5kjq38sDpEoF67YspEqZnTS8lyTjd9aYMaOBo2muLMgDFEP2whYDadoQHFdy95Ji/ObPZ/lbi/L7l5f+uUIAxRn0eU4HDxlhdICDnE46rYT/g3DW0B2B8jNteZWS5K9CC6mb5ne0gAZCpQR5m/AMBE0PVJYDwfgtOxhKgdBNlSTFH78FvwMJabXApTaVJPV3fdzT7xOlZWghfAOm1EkDkL8eeKd4Y+E9TlFSXxfUEynlGwv/IVphu5+BOn4rzFEM4LdZ56rLAfcHYU/5EQavUCsQ/lO/l9YQ72BIYeiORWxAKBAQ89cg+Ul3peCdfu8UkLRUhljjt3IDLxus8Vvlfa0aWkh/KKA4dFcB0ume/IeuysE5kUp/a7lQDDFOpOQ/+y4AKON33kl3pWCcfvPfWi4UCN9jXow7G45TdRAhjrPRGV9AA3pu227ujjvWooV0rM54t2m329AtcdK1Q5pbnQV6ko7T2WpOL6w3ASb84NoRW4vxJP2ntzW/KPcDLKD3sm3H2B1XntHZGO/GL6n9Eqbpp56dpDneqDKjn6+ZuqLeJ1DC212bY6uyjM7GFn853dughPFlWHVGYT7wQvzYFv2jtl3+enSssfhS2h8hAb30MoxY65Qb0emsyS6lB2k1XKOJsVuiqs7GrvxCQK1mkpEwULWsgBJBZwkhe/4zQSst/TFmPkCf7jNAwufZCe1mCavR6aR3wHTC54CEou0wyRZ5QuEWkUgI2RDzExKbmmdoGQlJTc01FJwwbx1OGVNFzO6hUULIOlRLSGSqiqHghDm7RQSFqUqGhgkhu8WLzB0/DrqpaoYG9F4AEu4pJ0Q2VdXQMOEeIKHXVTTFxjVV2VCfdhsQsFbbl7w9CUEzVd3QIOE+KOGF8A1Yxi5SQnVDfVzYialqM52BYWoRQwNArbRW2ymWEMHUQoaGCYFff8mOMaRAR/FChtrQQwyfw6IPEXS+kXFWIaN7CEyYdY4hQ9vUwoYGCSH7fUhhTW19U3NfBXnaL6EBlV6gONY0Bhxno7ChNvg8OEB+oJhJ4cWoY6gNPEqcUbzXhBQ1VcNQG7zdT9HpNQFFRvEig3YC0NQdcaH3EAuY6nQ0K3QxHqH/CuVqtNMQVVP1DA1eK1AeoWY7DVExVdtQlEY646XuQ1QwVdtQlL2QodtsAvJM1TXUf5EB/vqb4DYgYpapAEP9PormaMDnQm/CSeQvjQBD/UX4GTNgzbP1l6Jvqjiio2+ov9cDv8Hg2OtCIopMBRlqt7tIG8WcT9q7YgBvatHDilRAF7HLMCY9SMT0SyPIUP8JQr/1EgJ7iglTYYb6AQmeYBjRBnTUuKmgHho0GaKAfrvZ157fQmamar4KMrpf0ZtMjEPYYgxMhRragx495TBxoaaCeqjtuiQ9Jg7U1Ls2JGF3n9JQBsDUNfvV6itb58QppN37UkK+WvBltKapa3dv1ev1W3c1I7o0u6AIPVOba/dW6wGr99Z0TC3HUIaGqYGh9Sk6ppZmKKOwqb6hLKAfsbCpJfTQNMVMjQyNMhYztVxDGYfqL1QxQ+sappLv8jKUd/+EocVNde3SDWXsfVQxlTM0Qs3UagxlKPRUgaFFTG13S+6haSZ5b1RCQ9VNrdBQRrapvqHSeCqmVmsoI8PUDEPnpjalEUvf5WVITc00NN/UBTCUId798w2dmyoK2CN9ly+KwNRmvqFZpi6MoQxu91cyVG6q2wZ/RYJN0lT5Lq9mKu1pky5f5qYWMHRu6nzbWDhDGZOeq2FoFPEWG3Bc0HfNpHihqeo9NE1oarP7tZL/G1cR31SFXV76GF/ZzTbuD5/4TNxvGobOI35zF9ZQxt6bvnbAer1/uYg9NM13/Yj9H1VfvBo/tRP+rPrSVXmtZWr/8lfVF14ADVP736u+6GJcFQ24ujSGMoqZ2r98XfUFa/BbPeKyGcq4Un4/XDpDGddKpi6noQwFU5fVUMZVbsSlNZSR3VP7b5bZUMYfecT+76ovDgepqf2/VV8aFtf/RBlvhqEMgak3xVDGj3TE/lXVl4TN9Wo8Y//fTTJ0xq+Yqf0/VV8NDZGpN89QxvVlP2Cp59A8Xv+9+nuT8xkMBoPBYDAYDAaDwWAwGAwGg8FgMBgMhoXmf3Do5t2Z0MEtAAAAAElFTkSuQmCC;" parent="1" vertex="1">
          <mxGeometry x="190.5" y="223" width="25" height="25" as="geometry" />
        </mxCell>
        <mxCell id="EPyueugh2iobcvaEf9Se-6" value="" style="endArrow=classic;html=1;rounded=0;exitX=1;exitY=0.5;exitDx=0;exitDy=0;entryX=0;entryY=0.459;entryDx=0;entryDy=0;entryPerimeter=0;" parent="1" source="EPyueugh2iobcvaEf9Se-1" edge="1" target="pE5c4ry1s6cFORCVuCyy-39">
          <mxGeometry width="50" height="50" relative="1" as="geometry">
            <mxPoint x="290" y="150" as="sourcePoint" />
            <mxPoint x="410" y="160" as="targetPoint" />
            <Array as="points">
              <mxPoint x="269" y="180" />
            </Array>
          </mxGeometry>
        </mxCell>
        <mxCell id="EPyueugh2iobcvaEf9Se-7" value="" style="endArrow=classic;html=1;rounded=0;exitX=1;exitY=0.5;exitDx=0;exitDy=0;entryX=0;entryY=0.557;entryDx=0;entryDy=0;entryPerimeter=0;" parent="1" source="EPyueugh2iobcvaEf9Se-1" edge="1" target="pE5c4ry1s6cFORCVuCyy-18">
          <mxGeometry width="50" height="50" relative="1" as="geometry">
            <mxPoint x="227.5" y="220" as="sourcePoint" />
            <mxPoint x="414" y="270.5" as="targetPoint" />
            <Array as="points">
              <mxPoint x="269" y="360" />
            </Array>
          </mxGeometry>
        </mxCell>
        <mxCell id="EPyueugh2iobcvaEf9Se-15" value="" style="shape=image;verticalLabelPosition=bottom;labelBackgroundColor=default;verticalAlign=top;aspect=fixed;imageAspect=0;image=data:image/png,iVBORw0KGgoAAAANSUhEUgAAATkAAAChCAMAAACLfThZAAAApVBMVEX///8AAAAbFxtJnNI/mNClyeYYFBiKiYoIAAgXEhf39/ehoKG6uboaFRp9fH0UDxTEw8QqJyovLC85k8k0MTR2dHbw8PAjHyMPCA9El8vCwcLU1NTa2tpjYWPs7OxcWly/2OunpqeYl5hta23MzMxOTE5oqNOHuNvM4O/x9/s+Oz6TkpPi4eLn8Pdfo9F7stgnjMba6POoyuSxsLFGREbF2+yVwN8wimQ4AAAHq0lEQVR4nO2ca3eqOhCGHXqKgBe0eAEVUVGr1qqtHv//TzuTSVC7y+7t7L2wq+/zRRITSF4mM5PY1dIN+Bqlf8CXuCndgq9RAgAAAAAAAAAAAAAAAAAAAAAAAAAAAAAAAAAAAAAAAAAAAAAAAIDr4vG56BF8J26PT6fr5938scChfDOiINiMssJTFPxb4Fi+F8vRPAii26UpbnfHQodzzTzezLf3z6Oni5pjEASZi3vebQsZ1jfgcRcpeJHentTzboPgxpRGu3lRQ7tyls/Px/v5TaDUi+4z8ZbbIDDrdAGre5Pl4nbD6gXzLCQsomCjvd1id1/cuL4HyxGLF2wWprgNIm2Cox0Su3d5umftsiyOvZ1W8bhbvNEHaB7Z1ALzX5RGgcnn5tHyjS7AsNhE0dy4OGN1ywAB9kMcOVZoF8fSycW/u1GRAyqc4WCw/lDDBUfZkVyNAr1Qt9FfG9V3oE7U/ljL5SYy24jnYKM+HoMf/R/kyuTUP9p2nkl3r1PiY/CTg8RnlOP1aRbsjUSJ5Y8+cfqUcsrqJDo8BTd/a0Dfhs8pV+LsRFboffDj9xCfVG7JeZ18Bj/axyk+qRxnc5FY221wHeebg15veplWef3pdPC6WWfa61+W1/1poz981azfM307+3oc1/feG08+KTf89T7eupPX4RgFEheiK8jmhpxTCakRb7zS5aShy2mt26V+qT+T2rLpVo1Nt+ZEVyQWN+uUGpZJ0TptIicMHaK60S6Ok5PyaZxMS5lyVbl1en5Z67rLFd1yjuibSA7njibMFkiPnJqlsElG3g/Jl7IVUiIjT8m2aTqmUGppJd1WFNq6mUtdsY7Y4WbDPbmWmNGUHFuU5Y9Qa8Iq9rLHdh2qloxyoltoO/Rgvqzod8KiT1+N12xclzodLpA+2SJS6NquKjd45qxiKOo5TSVd27EsPyHLoC3qgbgRz1epHjZVTcrKUo+4QinXoFpI5elwPa2T7+qXwi+nkT236WbKlRM20nEl5hdmpCuTT5PBuhGT6fiCbSSazYOCs7mDkojictqkmItDNXOLrDgRRZ2E6+qsnOVbPluBlk65pD4vpngyScVAqVLSytkrKdbVfWhmHNVw5bikXkGuchY3FNNeN1k6JVSPX57u+kD+6tWIn7TRjQrefA2VGLRXl321MpIws6q1o6RTUy2LYDRrDB701Vg1j7XL8ppso36Lr1IlsM3mq/xcEorohoNPagHnK+cfTFWHzVR1avonS+OOr9frVjxd0cu1T0YezVoVRQd22+paTUWU82eqbqwunRd79D1X1TgyyKJW5ruW+9jOhXdXFtj5nXLnBVnhgsfrPEzPN89JWhY6mZvP3wrafx2xOdsZm0FUziZYKvlidJ5WTr97T0TMjGQwLseHlrQaGOVCbWkTOnl7oe2om+YqZ96TvnuNQ0jdObcaXH594ia6hh1Ey5ewSqksvlQWq8lORArWRCunPY/Fa9PVk6l0VUQUeUXXrLkiCV+69obYTn6EuDCqlc8es+XSuGoYs5avx3wbFR1XFTq28hKkmO1uJg7efCVejY3gUrmWUu6OL9Y1HYR9/1K5Gmnjbbr0YimtSRnju8rFHI5LnO3QiVqechwjruGUZEpGO7K80uqjynkSUx1yV1rsk839L+VSpRxdKsfkjDmKRn9Sgq/ilUknuRISzyLpbIQ1yVMulbr60ASVX5Wb+fTikJzT4vYHlONFPmGbo/dc/310Lb9U92YSKMjM3iQCyppUTMxTTuKuhMBBnnL8MsaXD9DlrnveQzTtHOW4wV5p+joTecnoKhydRqsz3F9kHcMsQ8lRThuamjqbU45yfXK7F3f3yFbp850rKbOusbLYes51+a5sqhyHJ++M9ukaDpnMFlzPf+3pVFcq49DsDnKU04YmE5yFOcqVDiGl54dwXhzLR5ilx/uTcuZpirqjXlSVXPedQXvml8NCcboP02FnqkKD7RiVbKoMprJRlTnkKOfpNHDf6ev9rPJfL5RjaWU3p/BibXKcLdZMsjJ0/JNyYZaxNYyaXd+JS28TRYX/5eaaXAlgEiDVAVLL0fmdBI0a6ZOg135OLE2a2bU85dRuw/EnA88bTELH0v6N17/bVRZWdeigIwSb2Yzu+rqH7UiOzfZPM62wN813eZvig+v+dARijo+8FtWymlBPOE+5gWRzck7SrUnu8otyLISvXwpnGTXS55ac57h0t3J4hzEm2arwhmHdIrpLZg4bZNPLuvrUTdJkRZdr/oJt8buIiTp99H1fnT+aKo6Djm+7vHNP1lkFo5VT+wZSzp/TQG7kUKuTqKq9SlQU54Siz/P2XddXBh3OdF2bb62eVWF1JPrGfGNvJkegJLn4qas6ElXnprnD3l7BYXqnWk9Wq0M6Pp9me/v2qtuMJ1lG1qgwE2MO6loSjs5k1m2mVfM1L6qe+qxc3rtfnt11V+XByjg1Ztq+a84m/BYG0qe0lxs32q3uoTz4pWtr1q68OL0/M7od/YnJXz19Urki+AJ1suhTP3EBg6f2or9ZeOBNqnRx6AY+wyEu9AD3GwPdAAAAAAAAAAAAAAAAAAAAAAAAAAAAAAAAAAAAAAAAAAAAAAAAAAAAAAAAAAAAAAAZ/wE8cJh81otY5QAAAABJRU5ErkJggg==;clipPath=inset(28.57% 14.33% 33.12% 16.67%);" parent="1" vertex="1">
          <mxGeometry x="690" y="200" width="38.88" height="11.081739130434784" as="geometry" />
        </mxCell>
        <mxCell id="EPyueugh2iobcvaEf9Se-27" value="" style="endArrow=classic;startArrow=none;html=1;rounded=0;exitX=1;exitY=0.5;exitDx=0;exitDy=0;" parent="1" edge="1">
          <mxGeometry width="50" height="50" relative="1" as="geometry">
            <mxPoint x="680" y="290" as="sourcePoint" />
            <mxPoint x="680" y="290" as="targetPoint" />
          </mxGeometry>
        </mxCell>
        <mxCell id="pE5c4ry1s6cFORCVuCyy-5" value="SonarQube (v 7.6) (SENHA)" style="whiteSpace=wrap;html=1;aspect=fixed;fillColor=#f8cecc;strokeColor=#b85450;" parent="1" vertex="1">
          <mxGeometry x="680" y="232" width="120" height="120" as="geometry" />
        </mxCell>
        <mxCell id="pE5c4ry1s6cFORCVuCyy-7" value="&lt;font style=&quot;font-size: 6px;&quot;&gt;&lt;div style=&quot;&quot;&gt;HOSTNAME: AMCIDINTSNRQ01A&lt;/div&gt;&lt;div style=&quot;&quot;&gt;IP Produccion: 10.99.226.16&lt;/div&gt;&lt;div style=&quot;&quot;&gt;IP Gestion: 10.99.240.21&lt;/div&gt;&lt;/font&gt;" style="rounded=0;whiteSpace=wrap;html=1;" parent="1" vertex="1">
          <mxGeometry x="680" y="232" width="100" height="38" as="geometry" />
        </mxCell>
        <mxCell id="pE5c4ry1s6cFORCVuCyy-14" value="&#xa;&lt;span style=&quot;color: rgb(0, 0, 0); font-family: Helvetica; font-size: 6px; font-style: normal; font-variant-ligatures: normal; font-variant-caps: normal; font-weight: 400; letter-spacing: normal; orphans: 2; text-align: center; text-indent: 0px; text-transform: none; widows: 2; word-spacing: 0px; -webkit-text-stroke-width: 0px; background-color: rgb(248, 249, 250); text-decoration-thickness: initial; text-decoration-style: initial; text-decoration-color: initial; float: none; display: inline !important;&quot;&gt;HOSTNAME: AMCIDINTESRC01A&lt;/span&gt;&lt;br style=&quot;color: rgb(0, 0, 0); font-family: Helvetica; font-size: 6px; font-style: normal; font-variant-ligatures: normal; font-variant-caps: normal; font-weight: 400; letter-spacing: normal; orphans: 2; text-align: center; text-indent: 0px; text-transform: none; widows: 2; word-spacing: 0px; -webkit-text-stroke-width: 0px; background-color: rgb(248, 249, 250); text-decoration-thickness: initial; text-decoration-style: initial; text-decoration-color: initial;&quot;&gt;&lt;span style=&quot;color: rgb(0, 0, 0); font-family: Helvetica; font-size: 6px; font-style: normal; font-variant-ligatures: normal; font-variant-caps: normal; font-weight: 400; letter-spacing: normal; orphans: 2; text-align: center; text-indent: 0px; text-transform: none; widows: 2; word-spacing: 0px; -webkit-text-stroke-width: 0px; background-color: rgb(248, 249, 250); text-decoration-thickness: initial; text-decoration-style: initial; text-decoration-color: initial; float: none; display: inline !important;&quot;&gt;IP Produccion: 10.99.226.24&lt;/span&gt;&lt;br style=&quot;color: rgb(0, 0, 0); font-family: Helvetica; font-size: 6px; font-style: normal; font-variant-ligatures: normal; font-variant-caps: normal; font-weight: 400; letter-spacing: normal; orphans: 2; text-align: center; text-indent: 0px; text-transform: none; widows: 2; word-spacing: 0px; -webkit-text-stroke-width: 0px; background-color: rgb(248, 249, 250); text-decoration-thickness: initial; text-decoration-style: initial; text-decoration-color: initial;&quot;&gt;&lt;span style=&quot;color: rgb(0, 0, 0); font-family: Helvetica; font-size: 6px; font-style: normal; font-variant-ligatures: normal; font-variant-caps: normal; font-weight: 400; letter-spacing: normal; orphans: 2; text-align: center; text-indent: 0px; text-transform: none; widows: 2; word-spacing: 0px; -webkit-text-stroke-width: 0px; background-color: rgb(248, 249, 250); text-decoration-thickness: initial; text-decoration-style: initial; text-decoration-color: initial; float: none; display: inline !important;&quot;&gt;IP Gestion: 10.99.247.203&lt;/span&gt;&#xa;&#xa;" style="rounded=0;whiteSpace=wrap;html=1;fontSize=6;" parent="1" vertex="1">
          <mxGeometry x="680" y="100" width="100" height="40" as="geometry" />
        </mxCell>
        <mxCell id="pE5c4ry1s6cFORCVuCyy-15" value="" style="shape=image;verticalLabelPosition=bottom;labelBackgroundColor=default;verticalAlign=top;aspect=fixed;imageAspect=0;image=data:image/png,iVBORw0KGgoAAAANSUhEUgAAATkAAAChCAMAAACLfThZAAAApVBMVEX///8AAAAbFxtJnNI/mNClyeYYFBiKiYoIAAgXEhf39/ehoKG6uboaFRp9fH0UDxTEw8QqJyovLC85k8k0MTR2dHbw8PAjHyMPCA9El8vCwcLU1NTa2tpjYWPs7OxcWly/2OunpqeYl5hta23MzMxOTE5oqNOHuNvM4O/x9/s+Oz6TkpPi4eLn8Pdfo9F7stgnjMba6POoyuSxsLFGREbF2+yVwN8wimQ4AAAHq0lEQVR4nO2ca3eqOhCGHXqKgBe0eAEVUVGr1qqtHv//TzuTSVC7y+7t7L2wq+/zRRITSF4mM5PY1dIN+Bqlf8CXuCndgq9RAgAAAAAAAAAAAAAAAAAAAAAAAAAAAAAAAAAAAAAAAAAAAAAAAIDr4vG56BF8J26PT6fr5938scChfDOiINiMssJTFPxb4Fi+F8vRPAii26UpbnfHQodzzTzezLf3z6Oni5pjEASZi3vebQsZ1jfgcRcpeJHentTzboPgxpRGu3lRQ7tyls/Px/v5TaDUi+4z8ZbbIDDrdAGre5Pl4nbD6gXzLCQsomCjvd1id1/cuL4HyxGLF2wWprgNIm2Cox0Su3d5umftsiyOvZ1W8bhbvNEHaB7Z1ALzX5RGgcnn5tHyjS7AsNhE0dy4OGN1ywAB9kMcOVZoF8fSycW/u1GRAyqc4WCw/lDDBUfZkVyNAr1Qt9FfG9V3oE7U/ljL5SYy24jnYKM+HoMf/R/kyuTUP9p2nkl3r1PiY/CTg8RnlOP1aRbsjUSJ5Y8+cfqUcsrqJDo8BTd/a0Dfhs8pV+LsRFboffDj9xCfVG7JeZ18Bj/axyk+qRxnc5FY221wHeebg15veplWef3pdPC6WWfa61+W1/1poz981azfM307+3oc1/feG08+KTf89T7eupPX4RgFEheiK8jmhpxTCakRb7zS5aShy2mt26V+qT+T2rLpVo1Nt+ZEVyQWN+uUGpZJ0TptIicMHaK60S6Ok5PyaZxMS5lyVbl1en5Z67rLFd1yjuibSA7njibMFkiPnJqlsElG3g/Jl7IVUiIjT8m2aTqmUGppJd1WFNq6mUtdsY7Y4WbDPbmWmNGUHFuU5Y9Qa8Iq9rLHdh2qloxyoltoO/Rgvqzod8KiT1+N12xclzodLpA+2SJS6NquKjd45qxiKOo5TSVd27EsPyHLoC3qgbgRz1epHjZVTcrKUo+4QinXoFpI5elwPa2T7+qXwi+nkT236WbKlRM20nEl5hdmpCuTT5PBuhGT6fiCbSSazYOCs7mDkojictqkmItDNXOLrDgRRZ2E6+qsnOVbPluBlk65pD4vpngyScVAqVLSytkrKdbVfWhmHNVw5bikXkGuchY3FNNeN1k6JVSPX57u+kD+6tWIn7TRjQrefA2VGLRXl321MpIws6q1o6RTUy2LYDRrDB701Vg1j7XL8ppso36Lr1IlsM3mq/xcEorohoNPagHnK+cfTFWHzVR1avonS+OOr9frVjxd0cu1T0YezVoVRQd22+paTUWU82eqbqwunRd79D1X1TgyyKJW5ruW+9jOhXdXFtj5nXLnBVnhgsfrPEzPN89JWhY6mZvP3wrafx2xOdsZm0FUziZYKvlidJ5WTr97T0TMjGQwLseHlrQaGOVCbWkTOnl7oe2om+YqZ96TvnuNQ0jdObcaXH594ia6hh1Ey5ewSqksvlQWq8lORArWRCunPY/Fa9PVk6l0VUQUeUXXrLkiCV+69obYTn6EuDCqlc8es+XSuGoYs5avx3wbFR1XFTq28hKkmO1uJg7efCVejY3gUrmWUu6OL9Y1HYR9/1K5Gmnjbbr0YimtSRnju8rFHI5LnO3QiVqechwjruGUZEpGO7K80uqjynkSUx1yV1rsk839L+VSpRxdKsfkjDmKRn9Sgq/ilUknuRISzyLpbIQ1yVMulbr60ASVX5Wb+fTikJzT4vYHlONFPmGbo/dc/310Lb9U92YSKMjM3iQCyppUTMxTTuKuhMBBnnL8MsaXD9DlrnveQzTtHOW4wV5p+joTecnoKhydRqsz3F9kHcMsQ8lRThuamjqbU45yfXK7F3f3yFbp850rKbOusbLYes51+a5sqhyHJ++M9ukaDpnMFlzPf+3pVFcq49DsDnKU04YmE5yFOcqVDiGl54dwXhzLR5ilx/uTcuZpirqjXlSVXPedQXvml8NCcboP02FnqkKD7RiVbKoMprJRlTnkKOfpNHDf6ev9rPJfL5RjaWU3p/BibXKcLdZMsjJ0/JNyYZaxNYyaXd+JS28TRYX/5eaaXAlgEiDVAVLL0fmdBI0a6ZOg135OLE2a2bU85dRuw/EnA88bTELH0v6N17/bVRZWdeigIwSb2Yzu+rqH7UiOzfZPM62wN813eZvig+v+dARijo+8FtWymlBPOE+5gWRzck7SrUnu8otyLISvXwpnGTXS55ac57h0t3J4hzEm2arwhmHdIrpLZg4bZNPLuvrUTdJkRZdr/oJt8buIiTp99H1fnT+aKo6Djm+7vHNP1lkFo5VT+wZSzp/TQG7kUKuTqKq9SlQU54Siz/P2XddXBh3OdF2bb62eVWF1JPrGfGNvJkegJLn4qas6ElXnprnD3l7BYXqnWk9Wq0M6Pp9me/v2qtuMJ1lG1qgwE2MO6loSjs5k1m2mVfM1L6qe+qxc3rtfnt11V+XByjg1Ztq+a84m/BYG0qe0lxs32q3uoTz4pWtr1q68OL0/M7od/YnJXz19Urki+AJ1suhTP3EBg6f2or9ZeOBNqnRx6AY+wyEu9AD3GwPdAAAAAAAAAAAAAAAAAAAAAAAAAAAAAAAAAAAAAAAAAAAAAAAAAAAAAAAAAAAAAAAZ/wE8cJh81otY5QAAAABJRU5ErkJggg==;clipPath=inset(28.57% 14.33% 33.12% 16.67%);" parent="1" vertex="1">
          <mxGeometry x="690" y="330" width="38.88" height="11.081739130434784" as="geometry" />
        </mxCell>
        <mxCell id="pE5c4ry1s6cFORCVuCyy-26" style="edgeStyle=orthogonalEdgeStyle;rounded=0;orthogonalLoop=1;jettySize=auto;html=1;exitX=1;exitY=0.5;exitDx=0;exitDy=0;entryX=0;entryY=0.592;entryDx=0;entryDy=0;entryPerimeter=0;fontSize=6;" parent="1" target="pE5c4ry1s6cFORCVuCyy-4" edge="1">
          <mxGeometry relative="1" as="geometry">
            <mxPoint x="510" y="7.999999999999773" as="sourcePoint" />
          </mxGeometry>
        </mxCell>
        <mxCell id="pE5c4ry1s6cFORCVuCyy-27" style="edgeStyle=orthogonalEdgeStyle;rounded=0;orthogonalLoop=1;jettySize=auto;html=1;exitX=0.5;exitY=1;exitDx=0;exitDy=0;fontSize=6;" parent="1" source="pE5c4ry1s6cFORCVuCyy-14" target="pE5c4ry1s6cFORCVuCyy-14" edge="1">
          <mxGeometry relative="1" as="geometry" />
        </mxCell>
        <mxCell id="pE5c4ry1s6cFORCVuCyy-29" value="HOSTNAME:tqavlstrosei01 &#xa;IP Produccion: 10.231.16.61 &#xa;IP Gestion: 10.59.19.56" style="rounded=0;whiteSpace=wrap;html=1;fontSize=6;" parent="1" vertex="1">
          <mxGeometry x="364.01" y="-30.22" width="120" height="30" as="geometry" />
        </mxCell>
        <mxCell id="pE5c4ry1s6cFORCVuCyy-33" value="GitLab&lt;br&gt;Server (Queretaro)" style="rounded=0;whiteSpace=wrap;html=1;labelBackgroundColor=none;fontSize=13;fillColor=#f5f5f5;fontColor=#333333;strokeColor=#666666;" parent="1" vertex="1">
          <mxGeometry x="190.5" y="-52" width="129.5" height="110" as="geometry" />
        </mxCell>
        <mxCell id="pE5c4ry1s6cFORCVuCyy-36" value="Repositorio NEXUS&lt;br&gt;(SENHA)" style="rounded=0;whiteSpace=wrap;html=1;labelBackgroundColor=none;fontSize=13;" parent="1" vertex="1">
          <mxGeometry x="680" y="395" width="120" height="130" as="geometry" />
        </mxCell>
        <mxCell id="pE5c4ry1s6cFORCVuCyy-37" value="HOSTNAME:AMCIDINTNEXU01A &#xa;IP Produccion: 10.99.226.211&#xa;IP Gestion: 10.99.247.175" style="rounded=0;whiteSpace=wrap;html=1;fontSize=6;" parent="1" vertex="1">
          <mxGeometry x="688.1" y="403" width="101.9" height="30" as="geometry" />
        </mxCell>
        <mxCell id="pE5c4ry1s6cFORCVuCyy-40" value="GitLab Runner&amp;nbsp;&lt;br&gt;(Azure)" style="rounded=0;whiteSpace=wrap;html=1;labelBackgroundColor=none;fontSize=13;" parent="1" vertex="1">
          <mxGeometry x="411" y="307" width="128" height="117" as="geometry" />
        </mxCell>
        <mxCell id="EPyueugh2iobcvaEf9Se-9" value="" style="shape=image;verticalLabelPosition=bottom;labelBackgroundColor=default;verticalAlign=top;aspect=fixed;imageAspect=0;image=data:image/png,iVBORw0KGgoAAAANSUhEUgAAAOEAAADhCAMAAAAJbSJIAAAA9lBMVEX////iQyn8bSb8oybhNBH0wLn8bCb8pSb8aibhQCniQCXhPB/kRin8ayLiPyP8aRzpTyj8ZhP8YgD8ngDhORrzXyf8oCb87ev76OXhNBDgLwD4ZifwWif9tZ3/8Or+08L8h1P99fTxrqb30879qYf7eib7hybulovnbVzvn5TzurPmYk/wp57kUz32y8bkTzbsjIDpeWr419P+x7H9v6f+2Mj8dTL7lyb/8+X8rULpdmb64d7lXkrqgnXriHv5nHz9lmr8fUD/49f9jl79rYz8iFX8dR38sln9yIn9z5n+4L7/9+3+3bb9wnj9v3L+3bf8qDP+69TguyEEAAAIqUlEQVR4nO2di1qbTBCGA4lRopGcrCamRqqtrbW19tza/vZsD/bg/d/MDyRLgN2FZWcGEp99L6DDB+/ODht8WqsZDAaDwWAwGAwGg8FgMBgMBoPBYDAYDAYDGG/leGW7hDo7fh2vhDocR6NhozE6o864fTZqNIajI+IyAu4PrYDBKe3t3T4dhHUa90nLCHgwDehHfEta5+1gVmf4gLQOhzeyGMOnhHXOG1GdEWEZAcfzygPKm3syiOo0jgnr8DzcjCpvPrwBdTjOh9acxg5dnUa8zjlZHZ6jQazy4ISszkmiTok7hveoFatMqE9MUstqPSpv338cl9TvclSa7owSdYaPierwvF9PVCbTNCGpZa2fEdXh2G4kClutU6JCicUQ3MoyxuCAO6mEVJpuj1J1GndI6vCcpm6tNaCpfGeQqtN6RFKH42n61lJ100QnncpCOSHOebKeLmxtUmi6w9dZ/4+gDodnpSUlWiDccvc1tcrYElf4wtYmxSvUW07Sksbv+4LCFH18O91nwltZwovwjuARktzbY3EhujGf8UB0ayk0FbpC+zY6hdsMp4ywW4DH7UkhZPNTxGNxYXxNxZL6t5J6/D7jN6mpptgtQCwp/fgtccdC76aecLmHD5F2SxTswkzTFdRCol13Voh2/H4ncQfdHtlq8NfDO9RCKZ5K3fEHKkxNtwWjIWNAOX4fyRPinjGkzkmSCZ8gFkohGroj1t8jVnovlZR2/F7JuLNWaxOvcOattIa4TS2OaNqPFcbTNEtSyvGbOzdJgqhplqQ+I6oTqZOMPhM+RLRK2beSbvyWDN3zhFiaZktKN34fSMeMGWia5kjq38sDpEoF67YspEqZnTS8lyTjd9aYMaOBo2muLMgDFEP2whYDadoQHFdy95Ji/ObPZ/lbi/L7l5f+uUIAxRn0eU4HDxlhdICDnE46rYT/g3DW0B2B8jNteZWS5K9CC6mb5ne0gAZCpQR5m/AMBE0PVJYDwfgtOxhKgdBNlSTFH78FvwMJabXApTaVJPV3fdzT7xOlZWghfAOm1EkDkL8eeKd4Y+E9TlFSXxfUEynlGwv/IVphu5+BOn4rzFEM4LdZ56rLAfcHYU/5EQavUCsQ/lO/l9YQ72BIYeiORWxAKBAQ89cg+Ul3peCdfu8UkLRUhljjt3IDLxus8Vvlfa0aWkh/KKA4dFcB0ume/IeuysE5kUp/a7lQDDFOpOQ/+y4AKON33kl3pWCcfvPfWi4UCN9jXow7G45TdRAhjrPRGV9AA3pu227ujjvWooV0rM54t2m329AtcdK1Q5pbnQV6ko7T2WpOL6w3ASb84NoRW4vxJP2ntzW/KPcDLKD3sm3H2B1XntHZGO/GL6n9Eqbpp56dpDneqDKjn6+ZuqLeJ1DC212bY6uyjM7GFn853dughPFlWHVGYT7wQvzYFv2jtl3+enSssfhS2h8hAb30MoxY65Qb0emsyS6lB2k1XKOJsVuiqs7GrvxCQK1mkpEwULWsgBJBZwkhe/4zQSst/TFmPkCf7jNAwufZCe1mCavR6aR3wHTC54CEou0wyRZ5QuEWkUgI2RDzExKbmmdoGQlJTc01FJwwbx1OGVNFzO6hUULIOlRLSGSqiqHghDm7RQSFqUqGhgkhu8WLzB0/DrqpaoYG9F4AEu4pJ0Q2VdXQMOEeIKHXVTTFxjVV2VCfdhsQsFbbl7w9CUEzVd3QIOE+KOGF8A1Yxi5SQnVDfVzYialqM52BYWoRQwNArbRW2ymWEMHUQoaGCYFff8mOMaRAR/FChtrQQwyfw6IPEXS+kXFWIaN7CEyYdY4hQ9vUwoYGCSH7fUhhTW19U3NfBXnaL6EBlV6gONY0Bhxno7ChNvg8OEB+oJhJ4cWoY6gNPEqcUbzXhBQ1VcNQG7zdT9HpNQFFRvEig3YC0NQdcaH3EAuY6nQ0K3QxHqH/CuVqtNMQVVP1DA1eK1AeoWY7DVExVdtQlEY646XuQ1QwVdtQlL2QodtsAvJM1TXUf5EB/vqb4DYgYpapAEP9PormaMDnQm/CSeQvjQBD/UX4GTNgzbP1l6Jvqjiio2+ov9cDv8Hg2OtCIopMBRlqt7tIG8WcT9q7YgBvatHDilRAF7HLMCY9SMT0SyPIUP8JQr/1EgJ7iglTYYb6AQmeYBjRBnTUuKmgHho0GaKAfrvZ157fQmamar4KMrpf0ZtMjEPYYgxMhRragx495TBxoaaCeqjtuiQ9Jg7U1Ls2JGF3n9JQBsDUNfvV6itb58QppN37UkK+WvBltKapa3dv1ev1W3c1I7o0u6AIPVOba/dW6wGr99Z0TC3HUIaGqYGh9Sk6ppZmKKOwqb6hLKAfsbCpJfTQNMVMjQyNMhYztVxDGYfqL1QxQ+sappLv8jKUd/+EocVNde3SDWXsfVQxlTM0Qs3UagxlKPRUgaFFTG13S+6haSZ5b1RCQ9VNrdBQRrapvqHSeCqmVmsoI8PUDEPnpjalEUvf5WVITc00NN/UBTCUId798w2dmyoK2CN9ly+KwNRmvqFZpi6MoQxu91cyVG6q2wZ/RYJN0lT5Lq9mKu1pky5f5qYWMHRu6nzbWDhDGZOeq2FoFPEWG3Bc0HfNpHihqeo9NE1oarP7tZL/G1cR31SFXV76GF/ZzTbuD5/4TNxvGobOI35zF9ZQxt6bvnbAer1/uYg9NM13/Yj9H1VfvBo/tRP+rPrSVXmtZWr/8lfVF14ADVP736u+6GJcFQ24ujSGMoqZ2r98XfUFa/BbPeKyGcq4Un4/XDpDGddKpi6noQwFU5fVUMZVbsSlNZSR3VP7b5bZUMYfecT+76ovDgepqf2/VV8aFtf/RBlvhqEMgak3xVDGj3TE/lXVl4TN9Wo8Y//fTTJ0xq+Yqf0/VV8NDZGpN89QxvVlP2Cp59A8Xv+9+nuT8xkMBoPBYDAYDAaDwWAwGAwGg8FgMBgMhoXmf3Do5t2Z0MEtAAAAAElFTkSuQmCC;" parent="1" vertex="1">
          <mxGeometry x="507" y="208" width="25" height="25" as="geometry" />
        </mxCell>
        <mxCell id="pE5c4ry1s6cFORCVuCyy-43" value="HOSTNAME:&amp;nbsp;&lt;br&gt;IP Produccion: 10.55.69.105&amp;nbsp;&lt;br&gt;IP Gestion: 10.59.189.133" style="rounded=0;whiteSpace=wrap;html=1;fontSize=6;" parent="1" vertex="1">
          <mxGeometry x="411" y="135" width="120" height="30" as="geometry" />
        </mxCell>
        <mxCell id="pE5c4ry1s6cFORCVuCyy-45" value="HOSTNAME:&amp;nbsp;&lt;br&gt;IP Produccion:&amp;nbsp;&amp;nbsp;&lt;br&gt;IP Gestion: 10.68.231.154" style="rounded=0;whiteSpace=wrap;html=1;fontSize=6;" parent="1" vertex="1">
          <mxGeometry x="415" y="313" width="120" height="30" as="geometry" />
        </mxCell>
        <mxCell id="pE5c4ry1s6cFORCVuCyy-49" value="HOSTNAME:tqavlstrosen02&amp;nbsp;&#xa;IP Produccion: 10.59.19.61&amp;nbsp;&#xa;IP Gestion: 10.231.16.67" style="rounded=0;whiteSpace=wrap;html=1;labelBackgroundColor=none;fontSize=6;" parent="1" vertex="1">
          <mxGeometry x="193.5" y="-48.12" width="105" height="30" as="geometry" />
        </mxCell>
        <mxCell id="pE5c4ry1s6cFORCVuCyy-50" value="OKD&#xa;HOSTNAME: AMCIDINTJENK01A &#xa;IP Produccion: 10.99.226.209 &#xa;IP Gestion: 10.99.245.115" style="rounded=0;whiteSpace=wrap;html=1;labelBackgroundColor=none;fontSize=6;" parent="1" vertex="1">
          <mxGeometry x="367.01" y="-240" width="130" height="40.22" as="geometry" />
        </mxCell>
        <mxCell id="KoIMYKCsZ12uGpvqyG89-2" value="&lt;font style=&quot;font-size: 8px;&quot;&gt;Peer de tunel VPN 40.88.141.88&lt;/font&gt;" style="text;html=1;strokeColor=none;fillColor=none;align=center;verticalAlign=middle;whiteSpace=wrap;rounded=0;" vertex="1" parent="1">
          <mxGeometry x="424" y="270" width="126" height="30" as="geometry" />
        </mxCell>
        <mxCell id="KoIMYKCsZ12uGpvqyG89-6" value="Runner Productivos" style="text;html=1;strokeColor=none;fillColor=none;align=center;verticalAlign=middle;whiteSpace=wrap;rounded=0;fontSize=8;" vertex="1" parent="1">
          <mxGeometry x="311" y="114" width="100" height="10" as="geometry" />
        </mxCell>
        <mxCell id="EPyueugh2iobcvaEf9Se-8" value="" style="shape=image;verticalLabelPosition=bottom;labelBackgroundColor=default;verticalAlign=top;aspect=fixed;imageAspect=0;image=data:image/png,iVBORw0KGgoAAAANSUhEUgAAAOEAAADhCAMAAAAJbSJIAAAA9lBMVEX////iQyn8bSb8oybhNBH0wLn8bCb8pSb8aibhQCniQCXhPB/kRin8ayLiPyP8aRzpTyj8ZhP8YgD8ngDhORrzXyf8oCb87ev76OXhNBDgLwD4ZifwWif9tZ3/8Or+08L8h1P99fTxrqb30879qYf7eib7hybulovnbVzvn5TzurPmYk/wp57kUz32y8bkTzbsjIDpeWr419P+x7H9v6f+2Mj8dTL7lyb/8+X8rULpdmb64d7lXkrqgnXriHv5nHz9lmr8fUD/49f9jl79rYz8iFX8dR38sln9yIn9z5n+4L7/9+3+3bb9wnj9v3L+3bf8qDP+69TguyEEAAAIqUlEQVR4nO2di1qbTBCGA4lRopGcrCamRqqtrbW19tza/vZsD/bg/d/MDyRLgN2FZWcGEp99L6DDB+/ODht8WqsZDAaDwWAwGAwGg8FgMBgMBoPBYDAYDAYDGG/leGW7hDo7fh2vhDocR6NhozE6o864fTZqNIajI+IyAu4PrYDBKe3t3T4dhHUa90nLCHgwDehHfEta5+1gVmf4gLQOhzeyGMOnhHXOG1GdEWEZAcfzygPKm3syiOo0jgnr8DzcjCpvPrwBdTjOh9acxg5dnUa8zjlZHZ6jQazy4ISszkmiTok7hveoFatMqE9MUstqPSpv338cl9TvclSa7owSdYaPierwvF9PVCbTNCGpZa2fEdXh2G4kClutU6JCicUQ3MoyxuCAO6mEVJpuj1J1GndI6vCcpm6tNaCpfGeQqtN6RFKH42n61lJ100QnncpCOSHOebKeLmxtUmi6w9dZ/4+gDodnpSUlWiDccvc1tcrYElf4wtYmxSvUW07Sksbv+4LCFH18O91nwltZwovwjuARktzbY3EhujGf8UB0ayk0FbpC+zY6hdsMp4ywW4DH7UkhZPNTxGNxYXxNxZL6t5J6/D7jN6mpptgtQCwp/fgtccdC76aecLmHD5F2SxTswkzTFdRCol13Voh2/H4ncQfdHtlq8NfDO9RCKZ5K3fEHKkxNtwWjIWNAOX4fyRPinjGkzkmSCZ8gFkohGroj1t8jVnovlZR2/F7JuLNWaxOvcOattIa4TS2OaNqPFcbTNEtSyvGbOzdJgqhplqQ+I6oTqZOMPhM+RLRK2beSbvyWDN3zhFiaZktKN34fSMeMGWia5kjq38sDpEoF67YspEqZnTS8lyTjd9aYMaOBo2muLMgDFEP2whYDadoQHFdy95Ji/ObPZ/lbi/L7l5f+uUIAxRn0eU4HDxlhdICDnE46rYT/g3DW0B2B8jNteZWS5K9CC6mb5ne0gAZCpQR5m/AMBE0PVJYDwfgtOxhKgdBNlSTFH78FvwMJabXApTaVJPV3fdzT7xOlZWghfAOm1EkDkL8eeKd4Y+E9TlFSXxfUEynlGwv/IVphu5+BOn4rzFEM4LdZ56rLAfcHYU/5EQavUCsQ/lO/l9YQ72BIYeiORWxAKBAQ89cg+Ul3peCdfu8UkLRUhljjt3IDLxus8Vvlfa0aWkh/KKA4dFcB0ume/IeuysE5kUp/a7lQDDFOpOQ/+y4AKON33kl3pWCcfvPfWi4UCN9jXow7G45TdRAhjrPRGV9AA3pu227ujjvWooV0rM54t2m329AtcdK1Q5pbnQV6ko7T2WpOL6w3ASb84NoRW4vxJP2ntzW/KPcDLKD3sm3H2B1XntHZGO/GL6n9Eqbpp56dpDneqDKjn6+ZuqLeJ1DC212bY6uyjM7GFn853dughPFlWHVGYT7wQvzYFv2jtl3+enSssfhS2h8hAb30MoxY65Qb0emsyS6lB2k1XKOJsVuiqs7GrvxCQK1mkpEwULWsgBJBZwkhe/4zQSst/TFmPkCf7jNAwufZCe1mCavR6aR3wHTC54CEou0wyRZ5QuEWkUgI2RDzExKbmmdoGQlJTc01FJwwbx1OGVNFzO6hUULIOlRLSGSqiqHghDm7RQSFqUqGhgkhu8WLzB0/DrqpaoYG9F4AEu4pJ0Q2VdXQMOEeIKHXVTTFxjVV2VCfdhsQsFbbl7w9CUEzVd3QIOE+KOGF8A1Yxi5SQnVDfVzYialqM52BYWoRQwNArbRW2ymWEMHUQoaGCYFff8mOMaRAR/FChtrQQwyfw6IPEXS+kXFWIaN7CEyYdY4hQ9vUwoYGCSH7fUhhTW19U3NfBXnaL6EBlV6gONY0Bhxno7ChNvg8OEB+oJhJ4cWoY6gNPEqcUbzXhBQ1VcNQG7zdT9HpNQFFRvEig3YC0NQdcaH3EAuY6nQ0K3QxHqH/CuVqtNMQVVP1DA1eK1AeoWY7DVExVdtQlEY646XuQ1QwVdtQlL2QodtsAvJM1TXUf5EB/vqb4DYgYpapAEP9PormaMDnQm/CSeQvjQBD/UX4GTNgzbP1l6Jvqjiio2+ov9cDv8Hg2OtCIopMBRlqt7tIG8WcT9q7YgBvatHDilRAF7HLMCY9SMT0SyPIUP8JQr/1EgJ7iglTYYb6AQmeYBjRBnTUuKmgHho0GaKAfrvZ157fQmamar4KMrpf0ZtMjEPYYgxMhRragx495TBxoaaCeqjtuiQ9Jg7U1Ls2JGF3n9JQBsDUNfvV6itb58QppN37UkK+WvBltKapa3dv1ev1W3c1I7o0u6AIPVOba/dW6wGr99Z0TC3HUIaGqYGh9Sk6ppZmKKOwqb6hLKAfsbCpJfTQNMVMjQyNMhYztVxDGYfqL1QxQ+sappLv8jKUd/+EocVNde3SDWXsfVQxlTM0Qs3UagxlKPRUgaFFTG13S+6haSZ5b1RCQ9VNrdBQRrapvqHSeCqmVmsoI8PUDEPnpjalEUvf5WVITc00NN/UBTCUId798w2dmyoK2CN9ly+KwNRmvqFZpi6MoQxu91cyVG6q2wZ/RYJN0lT5Lq9mKu1pky5f5qYWMHRu6nzbWDhDGZOeq2FoFPEWG3Bc0HfNpHihqeo9NE1oarP7tZL/G1cR31SFXV76GF/ZzTbuD5/4TNxvGobOI35zF9ZQxt6bvnbAer1/uYg9NM13/Yj9H1VfvBo/tRP+rPrSVXmtZWr/8lfVF14ADVP736u+6GJcFQ24ujSGMoqZ2r98XfUFa/BbPeKyGcq4Un4/XDpDGddKpi6noQwFU5fVUMZVbsSlNZSR3VP7b5bZUMYfecT+76ovDgepqf2/VV8aFtf/RBlvhqEMgak3xVDGj3TE/lXVl4TN9Wo8Y//fTTJ0xq+Yqf0/VV8NDZGpN89QxvVlP2Cp59A8Xv+9+nuT8xkMBoPBYDAYDAaDwWAwGAwGg8FgMBgMhoXmf3Do5t2Z0MEtAAAAAElFTkSuQmCC;" parent="1" vertex="1">
          <mxGeometry x="506" y="395" width="25" height="25" as="geometry" />
        </mxCell>
        <mxCell id="KoIMYKCsZ12uGpvqyG89-7" value="" style="endArrow=classic;html=1;rounded=0;fontSize=8;exitX=1;exitY=0.5;exitDx=0;exitDy=0;entryX=0;entryY=0.25;entryDx=0;entryDy=0;" edge="1" parent="1" source="pE5c4ry1s6cFORCVuCyy-39" target="pE5c4ry1s6cFORCVuCyy-5">
          <mxGeometry width="50" height="50" relative="1" as="geometry">
            <mxPoint x="410" y="250" as="sourcePoint" />
            <mxPoint x="460" y="200" as="targetPoint" />
            <Array as="points">
              <mxPoint x="537" y="262" />
            </Array>
          </mxGeometry>
        </mxCell>
        <mxCell id="KoIMYKCsZ12uGpvqyG89-8" value="" style="endArrow=classic;html=1;rounded=0;fontSize=8;exitX=1;exitY=0.5;exitDx=0;exitDy=0;entryX=0;entryY=0.5;entryDx=0;entryDy=0;" edge="1" parent="1" source="pE5c4ry1s6cFORCVuCyy-18" target="pE5c4ry1s6cFORCVuCyy-5">
          <mxGeometry width="50" height="50" relative="1" as="geometry">
            <mxPoint x="410" y="250" as="sourcePoint" />
            <mxPoint x="460" y="200" as="targetPoint" />
            <Array as="points">
              <mxPoint x="550" y="292" />
            </Array>
          </mxGeometry>
        </mxCell>
        <mxCell id="KoIMYKCsZ12uGpvqyG89-10" value="" style="endArrow=classic;html=1;rounded=0;fontSize=8;" edge="1" parent="1">
          <mxGeometry width="50" height="50" relative="1" as="geometry">
            <mxPoint x="380" y="350" as="sourcePoint" />
            <mxPoint x="430" y="300" as="targetPoint" />
          </mxGeometry>
        </mxCell>
        <mxCell id="KoIMYKCsZ12uGpvqyG89-12" value="" style="endArrow=classic;html=1;rounded=0;fontSize=8;" edge="1" parent="1">
          <mxGeometry width="50" height="50" relative="1" as="geometry">
            <mxPoint x="380" y="350" as="sourcePoint" />
            <mxPoint x="430" y="300" as="targetPoint" />
          </mxGeometry>
        </mxCell>
        <mxCell id="KoIMYKCsZ12uGpvqyG89-14" value="Despliegue&amp;nbsp; ARO (Azure)" style="whiteSpace=wrap;html=1;aspect=fixed;align=center;verticalAlign=top;fillColor=#d5e8d4;strokeColor=#82b366;" vertex="1" parent="1">
          <mxGeometry x="640" y="-200" width="166.25" height="166.25" as="geometry" />
        </mxCell>
        <mxCell id="KoIMYKCsZ12uGpvqyG89-15" value="OKD&#xa;HOSTNAME: AMCIDINTJENK01A &#xa;IP Produccion: 10.99.226.209 &#xa;IP Gestion: 10.99.245.115" style="rounded=0;whiteSpace=wrap;html=1;labelBackgroundColor=none;fontSize=6;" vertex="1" parent="1">
          <mxGeometry x="649.1300000000001" y="-170" width="130" height="40.22" as="geometry" />
        </mxCell>
      </root>
    </mxGraphModel>
  </diagram>
</mxfile>
